<svg width="73" height="59" viewBox="0 0 73 59" fill="none" xmlns="http://www.w3.org/2000/svg">
<path d="M21.7983 3.01942L19.6892 1.63171L19.6169 1.58116L19.481 1.53062L17.9421 0.849461L17.9874 0.950285C16.5299 0.395092 15.0001 0 13.3344 0C5.96569 0 0 5.76125 0 12.8681C0 19.975 5.97452 25.7363 13.3344 25.7363C15.6971 25.7363 17.8789 25.0972 19.8068 24.0543C19.146 30.9341 15.4162 40.9681 1.74713 51.2037C-0.162921 52.6335 -0.516106 55.2912 0.968695 57.1333C1.8377 58.2182 3.13224 58.7734 4.43589 58.7734C5.37724 58.7734 6.31888 58.4792 7.12437 57.8904C23.8987 45.308 28.0899 32.3896 28.6513 23.7603C29.6109 12.7255 26.0081 6.92218 22.7129 3.89455L21.7983 3.01942Z" fill="#48AA3F"/>
<path d="M66.5811 3.89402L65.6577 3.01942L63.5574 1.63171L63.485 1.58116L63.34 1.53062L61.8011 0.849461L61.8464 0.950285C60.389 0.395092 58.85 0 57.1844 0C49.8247 0 43.8682 5.76125 43.8682 12.8681C43.8682 19.975 49.8247 25.7363 57.2026 25.7363C59.5652 25.7363 61.747 25.0972 63.675 24.0543C63.0233 30.9341 59.2935 40.9681 45.6244 51.2037C43.7052 52.6335 43.3612 55.2912 44.846 57.1333C45.715 58.2182 47.0095 58.7734 48.3132 58.7734C49.2545 58.7734 50.1962 58.4792 51.0016 57.8904C67.785 45.308 71.9671 32.3896 72.5377 23.7603C73.4972 12.7252 69.8945 6.92192 66.5811 3.89402Z" fill="#48AA3F"/>
</svg>
