<svg width="8" height="14" viewBox="0 0 8 14" fill="none" xmlns="http://www.w3.org/2000/svg">
<path d="M5.59863 9.40234C5.59863 9.01497 5.47559 8.69596 5.22949 8.44531C4.9834 8.1901 4.57324 7.96224 3.99902 7.76172C3.4248 7.55664 2.97819 7.36751 2.65918 7.19434C1.59733 6.62467 1.06641 5.78158 1.06641 4.66504C1.06641 3.90853 1.29655 3.28646 1.75684 2.79883C2.21712 2.3112 2.84147 2.02181 3.62988 1.93066V0.44043H4.72363V1.94434C5.5166 2.05827 6.12956 2.39551 6.5625 2.95605C6.99544 3.51204 7.21191 4.23665 7.21191 5.12988H5.55762C5.55762 4.55566 5.42773 4.10449 5.16797 3.77637C4.91276 3.44368 4.56413 3.27734 4.12207 3.27734C3.68457 3.27734 3.34277 3.39583 3.09668 3.63281C2.85059 3.86979 2.72754 4.20931 2.72754 4.65137C2.72754 5.04785 2.84831 5.36686 3.08984 5.6084C3.33594 5.84538 3.75065 6.07096 4.33398 6.28516C4.91732 6.49935 5.37533 6.69759 5.70801 6.87988C6.04069 7.06217 6.32096 7.27181 6.54883 7.50879C6.77669 7.74121 6.95215 8.01009 7.0752 8.31543C7.19824 8.62077 7.25977 8.97852 7.25977 9.38867C7.25977 10.1589 7.02279 10.7832 6.54883 11.2617C6.07943 11.7402 5.42318 12.0228 4.58008 12.1094V13.4424H3.49316V12.1162C2.59082 12.016 1.89583 11.6924 1.4082 11.1455C0.92513 10.5986 0.683594 9.87402 0.683594 8.97168H2.34473C2.34473 9.5459 2.48828 9.99023 2.77539 10.3047C3.06706 10.6191 3.47721 10.7764 4.00586 10.7764C4.52539 10.7764 4.9196 10.651 5.18848 10.4004C5.46191 10.1497 5.59863 9.81706 5.59863 9.40234Z" fill="#ffffff"/>
</svg>
