<svg width="8" height="12" viewBox="0 0 8 12" fill="none" xmlns="http://www.w3.org/2000/svg">
<path d="M5.97461 7.39746H3.54102C3.56836 8.19043 3.7666 8.78288 4.13574 9.1748C4.50944 9.56673 5.04264 9.7627 5.73535 9.7627C6.23665 9.7627 6.70378 9.6875 7.13672 9.53711L7.32812 10.9316C6.78125 11.0638 6.21615 11.1299 5.63281 11.1299C4.46615 11.1299 3.54785 10.8018 2.87793 10.1455C2.20801 9.48926 1.85482 8.57324 1.81836 7.39746H0.642578V6.43359H1.81836V5.55859H0.642578V4.59473H1.8252C1.88444 3.43262 2.25586 2.53027 2.93945 1.8877C3.62305 1.24056 4.54134 0.916992 5.69434 0.916992C6.17741 0.916992 6.72201 0.98763 7.32812 1.12891L7.13672 2.53027C6.67188 2.37533 6.20931 2.29785 5.74902 2.29785C5.06087 2.29785 4.53223 2.49382 4.16309 2.88574C3.79395 3.27767 3.58887 3.84733 3.54785 4.59473H5.97461V5.55859H3.54102V6.43359H5.97461V7.39746Z" fill="#ffffff"/>
</svg>
