<svg width="10" height="10" viewBox="0 0 12 12" fill="none" xmlns="http://www.w3.org/2000/svg">
<g  transform="translate(1,1)">
    <path d="M5.59863 8.4209H3.39746V10H1.6748V8.4209H0.273438V7.0332H1.6748V6.30176H0.273438V4.91406H1.6748V0.046875H5.48242C6.58073 0.046875 7.45801 0.333984 8.11426 0.908203C8.77051 1.47786 9.09863 2.23665 9.09863 3.18457C9.09863 4.15072 8.78646 4.90951 8.16211 5.46094C7.53776 6.00781 6.6696 6.28809 5.55762 6.30176H3.39746V7.0332H5.59863V8.4209ZM3.39746 4.91406H5.45508C6.07487 4.91406 6.54883 4.77051 6.87695 4.4834C7.20508 4.19629 7.36914 3.7679 7.36914 3.19824C7.36914 2.68783 7.20736 2.27083 6.88379 1.94727C6.56478 1.6237 6.12272 1.45508 5.55762 1.44141H3.39746V4.91406Z" fill="#ffffff"/>
</g>
</svg>
