<svg width="16" height="16" viewBox="0 0 16 16" fill="none" xmlns="http://www.w3.org/2000/svg">
<path d="M15.4688 14.5688L11.7875 10.8875C12.7 9.775 13.25 8.35 13.25 6.79688C13.25 3.23438 10.3594 0.34375 6.79688 0.34375C3.23125 0.34375 0.34375 3.23438 0.34375 6.79688C0.34375 10.3594 3.23125 13.25 6.79688 13.25C8.35 13.25 9.77187 12.7031 10.8844 11.7906L14.5656 15.4688C14.8156 15.7188 15.2188 15.7188 15.4688 15.4688C15.7188 15.2219 15.7188 14.8156 15.4688 14.5688ZM6.79688 11.9656C3.94375 11.9656 1.625 9.64688 1.625 6.79688C1.625 3.94688 3.94375 1.625 6.79688 1.625C9.64688 1.625 11.9688 3.94688 11.9688 6.79688C11.9688 9.64688 9.64688 11.9656 6.79688 11.9656Z" fill="#2F2F2F"/>
</svg>
