<svg width="41" height="42" viewBox="0 0 41 42" fill="none" xmlns="http://www.w3.org/2000/svg">
<rect x="20.2131" y="1.49397" width="27.5855" height="27.5855" transform="rotate(45 20.2131 1.49397)" stroke="#60BC50"/>
<g transform="translate(10,13)">
    <path d="M4.49414 11H3.07617V4.15039L0.984375 4.86523V3.66406L4.3125 2.43945H4.49414V11ZM12.832 4.71875C12.832 5.13672 12.7246 5.50977 12.5098 5.83789C12.2949 6.16211 12.002 6.41797 11.6309 6.60547C12.0762 6.8125 12.418 7.0957 12.6562 7.45508C12.8984 7.81445 13.0195 8.2207 13.0195 8.67383C13.0195 9.42383 12.7656 10.0195 12.2578 10.4609C11.75 10.8984 11.0742 11.1172 10.2305 11.1172C9.38281 11.1172 8.70312 10.8965 8.19141 10.4551C7.68359 10.0137 7.42969 9.41992 7.42969 8.67383C7.42969 8.2168 7.55078 7.80664 7.79297 7.44336C8.03516 7.08008 8.375 6.80078 8.8125 6.60547C8.44531 6.41797 8.1543 6.16211 7.93945 5.83789C7.72852 5.50977 7.62305 5.13672 7.62305 4.71875C7.62305 3.99219 7.85742 3.41602 8.32617 2.99023C8.79492 2.56445 9.42773 2.35156 10.2246 2.35156C11.0254 2.35156 11.6602 2.56445 12.1289 2.99023C12.5977 3.41602 12.832 3.99219 12.832 4.71875ZM11.5957 8.60352C11.5957 8.18164 11.4688 7.8418 11.2148 7.58398C10.9648 7.32227 10.6328 7.19141 10.2188 7.19141C9.80469 7.19141 9.47266 7.32031 9.22266 7.57812C8.97656 7.83594 8.85352 8.17773 8.85352 8.60352C8.85352 9.02148 8.97461 9.35547 9.2168 9.60547C9.46289 9.85547 9.80078 9.98047 10.2305 9.98047C10.6602 9.98047 10.9941 9.85938 11.2324 9.61719C11.4746 9.375 11.5957 9.03711 11.5957 8.60352ZM11.4141 4.77148C11.4141 4.40039 11.3066 4.0957 11.0918 3.85742C10.877 3.61523 10.5879 3.49414 10.2246 3.49414C9.86133 3.49414 9.57422 3.60938 9.36328 3.83984C9.15234 4.06641 9.04688 4.37695 9.04688 4.77148C9.04688 5.16211 9.15234 5.47266 9.36328 5.70312C9.57812 5.93359 9.86719 6.04883 10.2305 6.04883C10.5938 6.04883 10.8809 5.93359 11.0918 5.70312C11.3066 5.47266 11.4141 5.16211 11.4141 4.77148ZM17.6602 6.30664H19.8867V7.60742H17.6602V10.1445H16.2773V7.60742H14.0391V6.30664H16.2773V3.93359H17.6602V6.30664Z" fill="#60BC50"/>
</g>
</svg>
